<svg xmlns="http://www.w3.org/2000/svg" xmlns:xlink="http://www.w3.org/1999/xlink" width="1889.207" height="457.17" viewBox="0 0 1889.207 457.17">
  <defs>
    <filter id="Path_5" x="0" y="0" width="1889.207" height="457.17" filterUnits="userSpaceOnUse">
      <feOffset dx="10" dy="6" input="SourceAlpha"/>
      <feGaussianBlur stdDeviation="13" result="blur"/>
      <feFlood flood-color="#5d00ff"/>
      <feComposite operator="in" in2="blur"/>
      <feComposite in="SourceGraphic"/>
    </filter>
  </defs>
  <g transform="matrix(1, 0, 0, 1, 0, 0)" filter="url(#Path_5)">
    <path id="Path_5-2" data-name="Path 5" d="M332.444-245.12q0,32.555-22.98,56.109t-67.025,33.9q23.746,6.511,36,21.257a51.5,51.5,0,0,1,12.256,33.9q0,30.257-18.959,52.471T216.4-13.214Q180.01-1.149,128.688-1.149q-19.15,0-30.64-1.149-.383,10.724-9.192,16.086t-22.6,5.362q-13.788,0-18.958-6.128t-4.4-18A1094.805,1094.805,0,0,1,56.3-117.39a1108.618,1108.618,0,0,1,25.278-113.56q2.681-9.575,10.724-13.4t21.065-3.83q23.363,0,23.363,13.022a39.353,39.353,0,0,1-2.3,12.256q-9.958,29.874-19.916,81a970.728,970.728,0,0,0-14.171,97.474Q118.73-42.9,130.22-42.9q53.62,0,78.707-15.512t25.086-39.641q0-16.852-14.362-28.342t-48.067-12.639q-7.66-.383-10.724-3.83T157.8-153.966q0-11.107,4.6-18t16.852-7.277q27.193-.766,49.216-8.043t34.661-20.491q12.639-13.214,12.639-30.831,0-22.214-21.831-35.044T186.9-286.484a297.63,297.63,0,0,0-79.281,10.533q-38.3,10.533-65.11,26.618-12.256,7.277-20.682,7.277-6.894,0-10.533-4.787A19.368,19.368,0,0,1,7.66-258.908a32.129,32.129,0,0,1,4.022-16.469q4.021-6.894,19.342-15.7,32.172-18.384,75.451-28.725a379.372,379.372,0,0,1,88.473-10.341q69.323,0,103.41,23.363T332.444-245.12Zm157.8,127.539q4.979,0,7.66,4.979t2.681,12.639q0,18.384-11.107,21.831a174.372,174.372,0,0,1-50.556,9.192q-7.277,32.172-28.725,51.514T361.552,1.915q-22.98,0-39.258-11.107a70.545,70.545,0,0,1-24.7-29.491,94.445,94.445,0,0,1-8.426-39.832q0-29.108,11.107-51.9t30.64-35.619a77.163,77.163,0,0,1,43.279-12.831q29.108,0,46.918,20.107t20.873,49.6q18-1.149,42.9-7.66A22.507,22.507,0,0,1,490.24-117.581Zm-125.624,78.9q12.256,0,21.257-9.958t12.065-28.725a52.873,52.873,0,0,1-18.193-21.065,62.361,62.361,0,0,1-6.319-27.576,66.372,66.372,0,0,1,1.149-12.256h-1.915q-15.32,0-25.469,14.746T337.04-81.962q0,21.065,8.234,32.172T364.616-38.683Zm271.547-78.9q4.979,0,7.66,4.979T646.5-99.963q0,18.384-11.107,21.831a174.372,174.372,0,0,1-50.556,9.192q-7.277,32.172-28.725,51.514T507.475,1.915q-22.98,0-39.258-11.107a70.545,70.545,0,0,1-24.7-29.491,94.445,94.445,0,0,1-8.426-39.832q0-29.108,11.107-51.9t30.64-35.619a77.163,77.163,0,0,1,43.279-12.831q29.108,0,46.917,20.107t20.873,49.6q18-1.149,42.9-7.66A22.507,22.507,0,0,1,636.163-117.581Zm-125.624,78.9q12.256,0,21.257-9.958T543.86-77.366a52.873,52.873,0,0,1-18.193-21.065,62.36,62.36,0,0,1-6.32-27.576,66.372,66.372,0,0,1,1.149-12.256h-1.915q-15.32,0-25.469,14.746t-10.15,41.556q0,21.065,8.234,32.172T510.539-38.683ZM808.13-85.409a8.85,8.85,0,0,1,7.852,4.6q2.872,4.6,2.872,12.639,0,15.32-7.277,23.746-17.235,21.065-34.853,33.7T734.977,1.915q-29.491,0-47.492-16.852t-18-44.811q0-14.937,15.32-21.448,16.852-7.277,24.129-15.511a29.29,29.29,0,0,0,7.277-20.108q0-6.894-2.872-10.341a8.88,8.88,0,0,0-7.086-3.447q-10.341,0-22.789,14.937T660.292-77.175a275.765,275.765,0,0,0-16.852,48.45q-4.213,18-9.766,24.32t-17.427,6.32q-11.873,0-17.427-8.617t-7.469-26.619q-1.915-18-1.915-52.854,0-58.982,12.065-122.943T637.12-316.55q23.554-43.47,56.492-43.47,17.618,0,28.534,15.129t10.915,39.258q0,38.683-22.6,80.238t-73.536,97.09q-1.149,19.916-1.149,40.981,18.384-47.875,42.13-69.515t44.428-21.639q19.15,0,30.831,13.022t11.682,32.172A72.989,72.989,0,0,1,754.127-94.6Q743.4-76.983,717.359-63.2a25.373,25.373,0,0,0,9.383,16.66,29.284,29.284,0,0,0,18.958,6.32q11.873,0,22.98-9.192t29.108-30.64Q802.385-85.409,808.13-85.409ZM685.57-322.1q-6.894,0-15.32,19.724t-16.277,53.237a710.95,710.95,0,0,0-12.831,72.962,274.086,274.086,0,0,0,39.258-60.9q15.512-32.938,15.511-59.748,0-12.256-2.681-18.767T685.57-322.1ZM1054.4-116.432a13.439,13.439,0,0,1,3.83-.383q5.745,0,8.809,3.83t3.064,10.341q0,11.873-4.6,18.576T1051.718-74.3a120.335,120.335,0,0,1-37.534,5.745,107.522,107.522,0,0,1-31.789-4.6q-11.107,18-24.512,37.151-15.32,21.831-26.235,29.874a40.6,40.6,0,0,1-24.7,8.043q-15.32,0-23.172-11.873t-9.767-39.066l-1.915-27.959q-11.873,32.172-21.256,49.024T832.067-4.6a37.662,37.662,0,0,1-22.023,6.511q-15.7,0-24.7-12.256t-11.3-38.683q-4.6-53.62-4.6-93.835v-13.4q.383-12.639,6.894-17.618t19.533-4.979q9.958,0,14.745,4.4t4.787,14.745q0,44.045,5.362,114.517,26.044-54.769,47.875-114.134,4.213-11.49,10.15-15.512a25,25,0,0,1,14.362-4.021q10.341,0,14.362,4.213t4.021,14.937q0,44.045,5.362,114.517,22.98-34.087,34.47-54.386-5.745-11.107-5.745-26.427a58.927,58.927,0,0,1,5.745-25.278,53.011,53.011,0,0,1,15.7-19.916,36.09,36.09,0,0,1,22.6-7.66q11.107,0,18,7.852t6.894,22.788q0,17.235-9.192,39.449,14.554-.766,38.683-5.745Zm150.9-1.149q4.979,0,7.66,4.979t2.681,12.639q0,18.384-11.107,21.831a174.372,174.372,0,0,1-50.556,9.192q-7.277,32.172-28.725,51.514T1076.613,1.915q-22.98,0-39.257-11.107a70.545,70.545,0,0,1-24.7-29.491,94.444,94.444,0,0,1-8.426-39.832q0-29.108,11.107-51.9t30.64-35.619a77.163,77.163,0,0,1,43.279-12.831q29.108,0,46.917,20.107t20.874,49.6q18-1.149,42.9-7.66A22.506,22.506,0,0,1,1205.3-117.581Zm-125.624,78.9q12.256,0,21.257-9.958T1113-77.366a52.873,52.873,0,0,1-18.193-21.065,62.36,62.36,0,0,1-6.319-27.576,66.372,66.372,0,0,1,1.149-12.256h-1.915q-15.32,0-25.47,14.746T1052.1-81.962q0,21.065,8.234,32.172T1079.677-38.683Zm103.41,40.6q-14.554,0-20.49-15.32t-5.937-49.024a311.9,311.9,0,0,1,14.171-94.6q3.447-11.107,11.3-16.277t22.022-5.171q7.66,0,10.724,1.915t3.064,7.277q0,6.128-5.745,27.576-3.83,15.32-6.128,26.81a274.765,274.765,0,0,0-3.83,28.342q12.639-32.938,28.342-53.62t30.832-29.491q15.128-8.809,27.767-8.809,24.9,0,24.9,24.9,0,4.979-3.447,24.129-3.064,15.32-3.064,19.15,0,13.405,9.575,13.4,10.724,0,27.576-16.852,4.979-4.979,10.341-4.979a8.924,8.924,0,0,1,7.851,4.4q2.872,4.4,2.872,11.681,0,14.171-7.66,22.214a103.764,103.764,0,0,1-25.087,18.958,62.545,62.545,0,0,1-30.448,7.852q-20.3,0-30.832-10.341T1261.219-91.92a58.456,58.456,0,0,1,1.149-11.49q.766-7.66.766-10.341,0-6.128-4.213-6.128-5.745,0-15.129,12.831t-18.575,33.9a275.1,275.1,0,0,0-14.937,44.428q-4.213,18-9.766,24.32T1183.087,1.915Zm147.455,0q-14.554,0-20.49-15.32t-5.937-49.024a311.9,311.9,0,0,1,14.171-94.6q3.447-11.107,11.3-16.277t22.022-5.171q7.66,0,10.724,1.915t3.064,7.277q0,6.128-5.745,27.576-3.83,15.32-6.128,26.619a265.456,265.456,0,0,0-3.83,28.15q10.341-29.874,24.7-50.556t29.491-30.831q15.129-10.149,28.533-10.15t18.958,6.128q5.554,6.128,5.554,18.767,0,12.256-7.277,44.428-3.064,13.788-4.213,20.682,19.15-47.109,42.513-68.557t43.662-21.448q24.9,0,24.9,24.9,0,14.937-8.426,54-7.277,33.321-7.277,44.045,0,15.32,11.107,15.32,7.66,0,18.193-9.383t28.15-30.449q4.6-5.362,10.341-5.362a8.85,8.85,0,0,1,7.852,4.6q2.872,4.6,2.872,12.639,0,15.32-7.277,23.746a169.5,169.5,0,0,1-35.427,33.321q-18.959,13.022-43.088,13.022-19.533,0-29.491-11.3t-9.958-32.747q0-10.724,5.362-38.3,4.979-24.129,4.979-33.321,0-6.128-4.213-6.128-4.979,0-14.171,12.831t-18.384,33.9a275.1,275.1,0,0,0-14.937,44.428q-4.213,18.384-9.766,24.512t-17.81,6.128q-12.639,0-18.958-12.065t-6.319-29.3q0-14.554,3.83-42.13,3.064-24.512,3.064-32.172,0-6.128-4.213-6.128-5.745,0-14.554,13.788t-17.043,35.236a339.047,339.047,0,0,0-13.214,42.13q-4.213,18-9.766,24.32T1330.542,1.915Zm302.187,8.426q-19.916,0-30.448-9.192t-10.532-20.682a23.557,23.557,0,0,1,7.277-17.235q7.277-7.277,21.448-7.277a84.043,84.043,0,0,1,11.682.958q6.7.957,10.15,1.34a49.306,49.306,0,0,0-4.4-18.767,93.763,93.763,0,0,0-10.15-17.043q-6.128-8.234-11.49-14.363-11.873,22.6-23.554,37.534a280.54,280.54,0,0,1-25.469,28.342q-6.894,6.894-14.554,6.894a12.575,12.575,0,0,1-9.958-4.4,16.044,16.044,0,0,1-3.83-10.916,21.834,21.834,0,0,1,5.362-14.171l4.979-6.128q21.065-26.044,31.789-42.9A247.385,247.385,0,0,0,1595-124.092q7.086-15.32,18.576-41.747,7.277-16.852,30.257-16.852,10.724,0,14.937,1.915t4.213,6.128a28.19,28.19,0,0,1-1.532,7.277,55.351,55.351,0,0,1-4.213,9.958q-6.894,13.788-6.894,23.363,0,5.745,4.021,12.639a143.454,143.454,0,0,0,12.448,17.235,243.32,243.32,0,0,1,18.576,27.384,49.755,49.755,0,0,1,6.319,24.7,65.081,65.081,0,0,1-7.469,30.448,60.849,60.849,0,0,1-20.874,23.172A54.529,54.529,0,0,1,1632.729,10.341Zm107.24-99.963q-7.66,0-12.639-3.447t-4.979-10.724l.383-3.064q6.511-42.9,17.618-97.665t20.682-94.6q6.128-24.512,33.321-24.512,24.512,0,24.512,15.7a29.357,29.357,0,0,1-1.149,7.66q-9.958,40.6-26.427,98.239t-31.406,100.155Q1755.672-89.622,1739.969-89.622ZM1725.415,1.915q-16.852,0-25.469-9.192t-8.617-24.129q0-17.235,9.766-27.576t27.385-10.341q16.852,0,25.469,8.235t8.617,24.32q0,17.618-9.958,28.151T1725.415,1.915Z" transform="translate(21.34 393.02)" fill="#fcfcfc"/>
  </g>
</svg>
